<svg width="48" height="48" viewBox="0 0 48 48" fill="none" xmlns="http://www.w3.org/2000/svg">
<path fill-rule="evenodd" clip-rule="evenodd" d="M35.1122 22.0562L44.7607 22.0562V25.0562H35.1127M35.1127 25.0562C32.812 25.0578 31.1937 26.723 31.1934 28.4871C31.1949 30.2531 32.8129 31.9178 35.113 31.919H44.7607V34.919H35.1122C31.4287 34.917 28.1958 32.1699 28.1934 28.4886C28.1934 24.8057 31.4297 22.0582 35.1122 22.0562" fill="black"/>
<path fill-rule="evenodd" clip-rule="evenodd" d="M3.23828 9.95215H44.7609V44.0002H3.23828V9.95215ZM6.23828 12.9521V41.0002H41.7609V12.9521H6.23828Z" fill="black"/>
<path fill-rule="evenodd" clip-rule="evenodd" d="M3.23828 4L39.4967 4.00161V12.7561H36.4967V7.00147L6.23828 7.00013V43.9991H3.23828V4Z" fill="black"/>
<path fill-rule="evenodd" clip-rule="evenodd" d="M12.3672 19.0874H26.2342V22.0874H12.3672V19.0874Z" fill="black"/>
</svg>
