<svg width="249" height="43" viewBox="0 0 249 43" fill="none" xmlns="http://www.w3.org/2000/svg">
<path d="M20.2261 37.312C20.2261 37.856 20.4341 38.24 20.8501 38.464C21.2661 38.688 21.7141 38.8 22.1941 38.8C22.9301 38.8 23.6661 38.64 24.4021 38.32C25.1701 37.968 25.9221 37.52 26.6581 36.976C27.3941 36.432 28.1141 35.824 28.8181 35.152C29.5221 34.448 30.1781 33.728 30.7861 32.992C32.2581 31.296 33.6661 29.376 35.0101 27.232C33.7621 29.696 32.4181 31.904 30.9781 33.856C30.3701 34.688 29.6981 35.504 28.9621 36.304C28.2261 37.072 27.4421 37.776 26.6101 38.416C25.8101 39.024 24.9781 39.52 24.1141 39.904C23.2501 40.288 22.3541 40.48 21.4261 40.48C20.3381 40.48 19.4901 40.224 18.8821 39.712C18.2741 39.2 17.9701 38.48 17.9701 37.552C17.9701 37.008 18.2261 36.416 18.7381 35.776C19.2821 35.136 19.8741 34.496 20.5141 33.856C21.1541 33.216 21.7301 32.608 22.2421 32.032C22.7541 31.456 23.0101 30.976 23.0101 30.592C22.9461 29.92 22.6741 29.504 22.1941 29.344C21.7461 29.152 21.2501 29.056 20.7061 29.056C20.2901 29.056 19.7301 29.12 19.0261 29.248C18.3541 29.344 17.6181 29.456 16.8181 29.584C16.0501 29.712 15.2661 29.824 14.4661 29.92C13.6981 30.016 13.0101 30.064 12.4021 30.064C11.5701 30.064 10.9141 29.824 10.4341 29.344C9.95406 28.832 9.71406 28.272 9.71406 27.664C9.71406 26.928 10.0021 26.304 10.5781 25.792C11.1861 25.28 11.9541 24.864 12.8821 24.544C13.8421 24.192 14.8981 23.92 16.0501 23.728C17.2021 23.504 18.3381 23.328 19.4581 23.2C20.5781 23.072 21.6021 22.976 22.5301 22.912C23.4581 22.816 24.1781 22.72 24.6901 22.624C26.6741 22.272 28.4021 21.76 29.8741 21.088C31.3781 20.416 32.6261 19.68 33.6181 18.88C34.6101 18.048 35.3461 17.184 35.8261 16.288C36.3381 15.36 36.5941 14.496 36.5941 13.696C36.5941 11.584 35.9861 9.888 34.7701 8.608C33.5861 7.296 31.8741 6.64 29.6341 6.64C28.6421 6.64 27.6821 6.784 26.7541 7.072C25.8261 7.36 24.8981 7.872 23.9701 8.608C23.0421 9.344 22.0981 10.336 21.1381 11.584C20.1781 12.8 19.1381 14.352 18.0181 16.24C17.6021 16.944 17.0901 17.728 16.4821 18.592C15.9061 19.456 15.2501 20.256 14.5141 20.992C13.7781 21.728 12.9781 22.352 12.1141 22.864C11.2821 23.376 10.4021 23.632 9.47406 23.632C9.31406 24.272 9.13806 24.912 8.94606 25.552C8.81806 26.096 8.67406 26.672 8.51406 27.28C8.38606 27.856 8.25806 28.368 8.13006 28.816C8.06606 29.104 7.95406 29.584 7.79406 30.256C7.63406 30.896 7.44206 31.632 7.21806 32.464C6.99406 33.264 6.70606 34.096 6.35406 34.96C6.03406 35.792 5.66606 36.56 5.25006 37.264C4.83406 37.968 4.37006 38.544 3.85806 38.992C3.34606 39.44 2.78606 39.664 2.17806 39.664C1.66606 39.664 1.21806 39.472 0.834063 39.088C0.450063 38.672 0.258063 38 0.258063 37.072C0.258063 36.144 0.498063 35.248 0.978063 34.384C1.45806 33.488 2.00206 32.704 2.61006 32.032C3.28206 31.264 4.05006 30.528 4.91406 29.824C4.33806 30.368 3.84206 30.928 3.42606 31.504C3.04206 32.016 2.69006 32.576 2.37006 33.184C2.05006 33.792 1.89006 34.4 1.89006 35.008C1.89006 35.552 1.98606 35.952 2.17806 36.208C2.40206 36.432 2.65806 36.544 2.94606 36.544C3.29806 36.544 3.61806 36.352 3.90606 35.968C4.22606 35.552 4.49806 35.088 4.72206 34.576C4.97806 34.032 5.18606 33.52 5.34606 33.04C5.53806 32.528 5.66606 32.16 5.73006 31.936C5.79406 31.712 5.97006 31.168 6.25806 30.304C6.54606 29.408 6.83406 28.448 7.12206 27.424C7.47406 26.24 7.87406 24.944 8.32206 23.536C7.61806 23.376 6.99406 23.12 6.45006 22.768C5.97006 22.448 5.52206 22.016 5.10606 21.472C4.72206 20.896 4.53006 20.144 4.53006 19.216C4.56206 18.032 4.93006 17.008 5.63406 16.144C6.37006 15.248 7.15406 14.512 7.98606 13.936C8.97806 13.232 10.0981 12.64 11.3461 12.16C11.5701 10.944 11.8901 9.872 12.3061 8.944C12.6581 8.112 13.0901 7.376 13.6021 6.736C14.1461 6.064 14.8021 5.728 15.5701 5.728C16.1781 5.728 16.6581 5.904 17.0101 6.256C17.3941 6.608 17.5861 7.136 17.5861 7.84C17.5861 8.672 17.2981 9.424 16.7221 10.096C16.1781 10.736 15.5701 11.28 14.8981 11.728C14.0981 12.24 13.1861 12.704 12.1621 13.12L9.90606 22.096C10.5141 22.096 11.1221 21.92 11.7301 21.568C12.3701 21.184 12.9781 20.704 13.5541 20.128C14.1621 19.52 14.7221 18.88 15.2341 18.208C15.7781 17.504 16.2581 16.832 16.6741 16.192C17.1221 15.52 17.4901 14.944 17.7781 14.464C18.0661 13.952 18.2741 13.6 18.4021 13.408C18.5941 13.12 18.9461 12.528 19.4581 11.632C20.0021 10.704 20.7381 9.744 21.6661 8.752C22.5941 7.728 23.7301 6.832 25.0741 6.064C26.4181 5.264 27.9861 4.864 29.7781 4.864C30.7381 4.864 31.7301 5.008 32.7541 5.296C33.7781 5.552 34.7061 6 35.5381 6.64C36.4021 7.28 37.1061 8.16 37.6501 9.28C38.2261 10.368 38.5141 11.76 38.5141 13.456C38.5141 15.216 38.0661 16.704 37.1701 17.92C36.2741 19.136 35.1541 20.144 33.8101 20.944C32.4661 21.712 31.0101 22.32 29.4421 22.768C27.8741 23.216 26.4181 23.552 25.0741 23.776C24.5621 23.872 23.8741 23.952 23.0101 24.016C22.1461 24.08 21.2181 24.16 20.2261 24.256C19.2341 24.352 18.2261 24.48 17.2021 24.64C16.2101 24.8 15.3141 25.008 14.5141 25.264C13.7141 25.488 13.0581 25.776 12.5461 26.128C12.0341 26.48 11.7781 26.912 11.7781 27.424C11.7781 27.712 11.8581 27.952 12.0181 28.144C12.2101 28.304 12.4341 28.432 12.6901 28.528C12.9461 28.592 13.2181 28.64 13.5061 28.672C13.7941 28.672 14.0501 28.672 14.2741 28.672C14.7541 28.672 15.3461 28.624 16.0501 28.528C16.7861 28.4 17.5381 28.272 18.3061 28.144C19.1061 27.984 19.9061 27.856 20.7061 27.76C21.5061 27.632 22.2421 27.568 22.9141 27.568C23.5221 27.568 24.0501 27.76 24.4981 28.144C24.9781 28.528 25.2181 29.056 25.2181 29.728C25.2181 30.272 24.9621 30.864 24.4501 31.504C23.9381 32.144 23.3621 32.8 22.7221 33.472C22.1141 34.144 21.5381 34.816 20.9941 35.488C20.4821 36.128 20.2261 36.736 20.2261 37.312ZM5.92206 19.12C5.92206 19.76 6.06606 20.288 6.35406 20.704C6.64206 21.088 6.96206 21.376 7.31406 21.568C7.73006 21.792 8.19406 21.952 8.70606 22.048L10.9621 13.648C10.0341 14.032 9.20206 14.496 8.46606 15.04C7.82606 15.488 7.23406 16.064 6.69006 16.768C6.17806 17.44 5.92206 18.224 5.92206 19.12ZM14.7541 8.032C14.4021 8.032 14.0821 8.224 13.7941 8.608C13.5061 8.992 13.2661 9.424 13.0741 9.904C12.8501 10.448 12.6581 11.072 12.4981 11.776C13.0741 11.52 13.5861 11.232 14.0341 10.912C14.3861 10.656 14.7221 10.352 15.0421 10C15.3621 9.648 15.5221 9.28 15.5221 8.896C15.5221 8.64 15.4421 8.432 15.2821 8.272C15.1541 8.112 14.9781 8.032 14.7541 8.032ZM63.0694 25.12C63.5494 25.12 63.9654 25.04 64.3174 24.88C64.6694 24.688 64.9894 24.496 65.2774 24.304C65.5974 24.08 65.9334 23.888 66.2854 23.728C66.6374 23.536 67.0694 23.44 67.5814 23.44C68.4134 23.44 69.0374 23.696 69.4534 24.208C69.9014 24.688 70.1254 25.28 70.1254 25.984C70.1254 26.336 70.0294 26.736 69.8374 27.184C69.6454 27.632 69.3574 28.048 68.9734 28.432C68.6214 28.816 68.1734 29.136 67.6294 29.392C67.0854 29.648 66.4774 29.776 65.8054 29.776C64.8134 29.776 63.9494 29.568 63.2134 29.152C62.5094 28.704 61.8374 28.144 61.1974 27.472C60.5894 26.8 59.9814 26.08 59.3734 25.312C58.7654 24.544 58.0774 23.824 57.3094 23.152C56.5734 22.448 55.7254 21.872 54.7654 21.424C53.8054 20.944 52.6534 20.672 51.3094 20.608C50.8294 20.608 50.3174 20.656 49.7734 20.752C49.2614 20.816 48.7814 20.96 48.3334 21.184C47.8854 21.408 47.5174 21.712 47.2294 22.096C46.9414 22.48 46.7974 22.96 46.7974 23.536C46.7974 24.208 46.9894 24.768 47.3734 25.216C47.7574 25.664 48.1574 26.096 48.5734 26.512C49.0214 26.928 49.4054 27.344 49.7254 27.76C50.0774 28.176 50.2054 28.688 50.1094 29.296C50.0134 29.904 49.7734 30.368 49.3894 30.688C49.0374 30.976 48.6054 31.2 48.0934 31.36C47.5814 31.52 47.0374 31.632 46.4614 31.696C45.8854 31.76 45.3574 31.856 44.8774 31.984C44.3974 32.08 43.9974 32.24 43.6774 32.464C43.3574 32.688 43.1974 33.04 43.1974 33.52C43.1974 33.936 43.3254 34.288 43.5814 34.576C43.8694 34.864 44.2694 35.008 44.7814 35.008C45.2294 35.008 45.6294 34.944 45.9814 34.816C46.3654 34.688 46.7334 34.544 47.0854 34.384C47.4374 34.192 47.7894 34.032 48.1414 33.904C48.5254 33.776 48.9414 33.712 49.3894 33.712C50.0294 33.712 50.5574 33.904 50.9734 34.288C51.3894 34.64 51.5974 35.104 51.5974 35.68C51.5974 36.064 51.4854 36.416 51.2614 36.736C51.0694 37.024 50.8294 37.312 50.5414 37.6C50.2854 37.888 50.0454 38.176 49.8214 38.464C49.6294 38.72 49.5334 39.024 49.5334 39.376C49.5334 39.952 49.8534 40.432 50.4934 40.816C51.1654 41.232 52.0454 41.44 53.1334 41.44C54.2214 41.44 55.1174 41.2 55.8214 40.72C56.5254 40.24 57.1174 39.648 57.5974 38.944C58.1094 38.24 58.5414 37.472 58.8934 36.64C59.2454 35.776 59.6134 34.992 59.9974 34.288C60.4134 33.584 60.8774 32.992 61.3894 32.512C61.9334 32.032 62.6054 31.792 63.4054 31.792H63.6454C64.4774 31.856 65.1494 32.176 65.6614 32.752C66.1734 33.296 66.4294 33.968 66.4294 34.768C66.4294 35.824 65.9814 36.8 65.0854 37.696C64.2214 38.592 63.0694 39.36 61.6294 40C60.2214 40.672 58.6374 41.184 56.8774 41.536C55.1174 41.888 53.3574 42.064 51.5974 42.064C50.0614 42.064 48.5414 41.84 47.0374 41.392C45.5334 40.976 44.1734 40.4 42.9574 39.664C41.7414 38.928 40.7494 38.064 39.9814 37.072C39.2454 36.08 38.8774 35.04 38.8774 33.952C38.8774 32.736 39.3254 31.824 40.2214 31.216C41.1174 30.608 42.1894 30.304 43.4374 30.304C44.2054 30.304 44.9574 30.368 45.6934 30.496C46.4294 30.624 47.0854 30.688 47.6614 30.688C48.1734 30.688 48.5894 30.592 48.9094 30.4C49.2614 30.208 49.4694 29.84 49.5334 29.296C49.5974 28.816 49.4694 28.432 49.1494 28.144C48.8294 27.824 48.3974 27.536 47.8534 27.28C47.3414 27.024 46.7654 26.784 46.1254 26.56C45.5174 26.336 44.9254 26.08 44.3494 25.792C43.8054 25.472 43.3414 25.104 42.9574 24.688C42.6054 24.272 42.4294 23.76 42.4294 23.152C42.4294 21.968 43.1494 21.152 44.5894 20.704C46.0294 20.224 47.9014 19.984 50.2054 19.984C52.0294 19.984 53.5974 20.256 54.9094 20.8C56.2214 21.312 57.3574 21.904 58.3174 22.576C59.3094 23.216 60.1734 23.808 60.9094 24.352C61.6774 24.864 62.3974 25.12 63.0694 25.12ZM61.2934 15.52C62.3494 15.52 63.2614 15.808 64.0294 16.384C64.8294 16.928 65.2294 17.776 65.2294 18.928C65.2294 20.048 64.8934 20.928 64.2214 21.568C63.5494 22.208 62.8134 22.528 62.0134 22.528C61.0854 22.528 60.3814 22.288 59.9014 21.808C59.4214 21.328 59.1494 20.656 59.0854 19.792C59.0534 19.472 59.0534 19.152 59.0854 18.832C59.1494 18.48 59.1814 18.176 59.1814 17.92C59.1814 17.664 59.1174 17.456 58.9894 17.296C58.8934 17.104 58.6534 17.008 58.2694 17.008C57.9814 17.008 57.5334 17.12 56.9254 17.344C56.3174 17.536 55.6294 17.76 54.8614 18.016C54.1254 18.272 53.3574 18.512 52.5574 18.736C51.7574 18.928 51.0054 19.024 50.3014 19.024C48.4774 19.024 47.0214 18.496 45.9334 17.44C44.8454 16.352 44.3014 14.992 44.3014 13.36C44.3014 12.24 44.4934 11.2 44.8774 10.24C45.2934 9.28 45.8534 8.448 46.5574 7.744C47.2614 7.008 48.0934 6.432 49.0534 6.016C50.0454 5.6 51.1334 5.392 52.3174 5.392C53.1494 5.392 53.8214 5.52 54.3334 5.776C54.8774 6.032 55.3574 6.32 55.7734 6.64C56.2214 6.96 56.6214 7.248 56.9734 7.504C57.3574 7.76 57.7894 7.888 58.2694 7.888C58.7494 7.888 59.1014 7.584 59.3254 6.976C59.5814 6.368 59.8534 5.696 60.1414 4.96C60.4614 4.192 60.8614 3.504 61.3414 2.896C61.8534 2.288 62.5734 1.984 63.5014 1.984C64.5254 1.984 65.2294 2.24 65.6134 2.752C65.9974 3.232 66.2694 3.776 66.4294 4.384C66.6214 4.96 66.8134 5.504 67.0054 6.016C67.1974 6.496 67.6294 6.736 68.3014 6.736C68.5574 6.736 68.7974 6.656 69.0214 6.496C69.2454 6.336 69.4854 6.16 69.7414 5.968C70.0294 5.744 70.3334 5.552 70.6534 5.392C71.0054 5.232 71.4214 5.152 71.9014 5.152C72.7334 5.152 73.3254 5.424 73.6774 5.968C74.0294 6.512 74.2054 7.104 74.2054 7.744C74.2054 8.256 74.0454 8.752 73.7254 9.232C73.4374 9.712 73.0534 10.128 72.5734 10.48C72.0934 10.832 71.5494 11.12 70.9414 11.344C70.3654 11.536 69.7894 11.632 69.2134 11.632C68.1894 11.632 67.4214 11.408 66.9094 10.96C66.3974 10.48 66.0454 9.904 65.8534 9.232C65.6614 8.56 65.5494 7.824 65.5174 7.024C65.5174 6.192 65.4854 5.44 65.4214 4.768C65.3894 4.096 65.2454 3.536 64.9894 3.088C64.7654 2.608 64.3334 2.368 63.6934 2.368C63.0854 2.368 62.6374 2.592 62.3494 3.04C62.0614 3.456 61.8534 3.984 61.7254 4.624C61.5974 5.264 61.5174 5.968 61.4854 6.736C61.4534 7.504 61.3894 8.24 61.2934 8.944C61.2294 9.616 61.0694 10.208 60.8134 10.72C60.5894 11.232 60.2054 11.552 59.6614 11.68C59.5334 11.712 59.3414 11.728 59.0854 11.728C58.3814 11.728 57.8214 11.424 57.4054 10.816C57.0214 10.208 56.6214 9.536 56.2054 8.8C55.7894 8.032 55.2934 7.344 54.7174 6.736C54.1734 6.128 53.3894 5.824 52.3654 5.824C51.2774 5.824 50.3014 6.032 49.4374 6.448C48.6054 6.864 48.1894 7.44 48.1894 8.176C48.1894 8.656 48.3174 9.008 48.5734 9.232C48.8294 9.456 49.1494 9.6 49.5334 9.664C49.9174 9.728 50.3334 9.76 50.7814 9.76C51.2294 9.76 51.6454 9.792 52.0294 9.856C52.4134 9.888 52.7334 10 52.9894 10.192C53.2454 10.352 53.3734 10.64 53.3734 11.056C53.3734 11.664 53.1654 12.192 52.7494 12.64C52.3654 13.056 51.9334 13.44 51.4534 13.792C50.9734 14.144 50.5254 14.496 50.1094 14.848C49.7254 15.2 49.5334 15.6 49.5334 16.048C49.5334 16.688 49.7734 17.152 50.2534 17.44C50.7334 17.696 51.3734 17.824 52.1734 17.824C52.9414 17.824 53.6934 17.712 54.4294 17.488C55.1974 17.264 55.9494 17.024 56.6854 16.768C57.4534 16.48 58.2054 16.208 58.9414 15.952C59.7094 15.696 60.4934 15.552 61.2934 15.52ZM110.801 19.648V23.152H110.465V19.648C110.465 17.6 110.001 16.112 109.073 15.184C108.145 14.224 106.625 13.744 104.513 13.744H101.969V13.456H104.513C105.537 13.456 106.385 13.36 107.057 13.168C107.761 12.944 108.321 12.656 108.737 12.304C108.641 12.176 108.305 11.728 107.729 10.96C107.153 10.16 106.337 9.312 105.281 8.416C104.225 7.52 102.929 6.72 101.393 6.016C99.8893 5.28 98.1613 4.912 96.2093 4.912C94.2253 4.912 92.4813 5.2 90.9773 5.776C89.4733 6.352 88.1613 7.12 87.0413 8.08C85.9533 9.04 85.0413 10.144 84.3053 11.392C83.6013 12.608 83.0253 13.872 82.5773 15.184C82.1613 16.496 81.8573 17.792 81.6653 19.072C81.4733 20.352 81.3773 21.52 81.3773 22.576C81.3773 24.304 81.5693 26.208 81.9533 28.288C82.3693 30.336 83.1053 32.272 84.1613 34.096C85.2173 35.888 86.6733 37.392 88.5293 38.608C90.3853 39.824 92.7533 40.432 95.6333 40.432C97.7453 40.432 99.5213 40.256 100.961 39.904C102.401 39.52 103.553 38.976 104.417 38.272C105.281 37.536 105.905 36.656 106.289 35.632C106.673 34.576 106.865 33.392 106.865 32.08V29.488C106.865 28.784 106.849 28.192 106.817 27.712C106.785 27.2 106.657 26.8 106.433 26.512C106.241 26.192 105.921 25.968 105.473 25.84C105.057 25.712 104.465 25.648 103.697 25.648H99.4733C99.4093 25.648 99.3773 25.616 99.3773 25.552V25.456C99.3773 25.392 99.4093 25.36 99.4733 25.36H116.273C116.337 25.36 116.369 25.392 116.369 25.456V25.552C116.369 25.616 116.337 25.648 116.273 25.648H114.017C113.409 25.648 112.929 25.712 112.577 25.84C112.257 25.936 112.017 26.112 111.857 26.368C111.697 26.592 111.601 26.896 111.569 27.28C111.537 27.632 111.521 28.08 111.521 28.624V33.952C110.689 35.296 109.553 36.48 108.113 37.504C107.505 37.952 106.785 38.4 105.953 38.848C105.121 39.264 104.193 39.648 103.169 40C102.145 40.32 100.993 40.576 99.7133 40.768C98.4333 40.992 97.0253 41.104 95.4893 41.104C92.8973 41.104 90.4013 40.704 88.0013 39.904C85.6333 39.104 83.5373 37.936 81.7133 36.4C79.9213 34.832 78.4813 32.896 77.3933 30.592C76.3373 28.256 75.8093 25.584 75.8093 22.576C75.8093 19.568 76.3693 16.912 77.4893 14.608C78.6093 12.304 80.0813 10.384 81.9053 8.848C83.7293 7.28 85.7933 6.096 88.0973 5.296C90.4013 4.496 92.7533 4.096 95.1533 4.096C97.4253 4.096 99.4253 4.512 101.153 5.344C102.881 6.144 104.337 7.04 105.521 8.032C106.897 9.216 108.081 10.544 109.073 12.016C109.489 11.6 109.825 11.04 110.081 10.336C110.337 9.632 110.465 8.704 110.465 7.552V4.048H110.801V7.552C110.801 9.632 111.281 11.136 112.241 12.064C113.201 12.992 114.705 13.456 116.753 13.456H119.297V13.744H116.753C114.673 13.776 113.153 14.256 112.193 15.184C111.265 16.08 110.801 17.568 110.801 19.648ZM153.078 8.272V36.88C153.078 37.904 153.302 38.592 153.75 38.944C154.23 39.264 154.934 39.424 155.862 39.424H156.822C157.91 39.424 158.55 38.96 158.742 38.032C158.838 37.552 158.71 36.8 158.358 35.776C158.038 34.752 157.622 33.696 157.11 32.608C156.598 31.488 156.086 30.448 155.574 29.488C155.062 28.496 154.694 27.792 154.47 27.376C154.47 27.28 154.502 27.216 154.566 27.184C154.63 27.12 154.678 27.12 154.71 27.184C154.71 27.184 154.726 27.184 154.758 27.184L161.718 39.52C161.718 39.552 161.734 39.6 161.766 39.664C161.798 39.696 161.814 39.744 161.814 39.808C161.814 39.936 161.718 40 161.526 40H150.582L128.742 7.648V36.4C128.742 37.584 128.95 38.384 129.366 38.8C129.782 39.216 130.502 39.424 131.526 39.424H132.438C132.534 39.424 132.582 39.504 132.582 39.664V39.808C132.582 39.936 132.534 40 132.438 40H123.462C123.27 40 123.174 39.936 123.174 39.808V39.664C123.174 39.504 123.27 39.424 123.462 39.424H124.374C125.302 39.424 125.99 39.2 126.438 38.752C126.886 38.304 127.11 37.52 127.11 36.4V8.272C127.11 7.344 126.934 6.704 126.582 6.352C126.262 5.968 125.686 5.776 124.854 5.776H123.414C122.966 5.776 122.55 5.872 122.166 6.064C121.814 6.256 121.59 6.624 121.494 7.168C121.398 7.776 121.526 8.608 121.878 9.664C122.23 10.688 122.662 11.728 123.174 12.784C123.686 13.84 124.198 14.832 124.71 15.76C125.222 16.688 125.574 17.36 125.766 17.776C125.798 17.872 125.766 17.968 125.67 18.064C125.542 18.128 125.462 18.096 125.43 17.968L118.518 5.632C118.518 5.6 118.502 5.568 118.47 5.536C118.438 5.504 118.422 5.472 118.422 5.44C118.422 5.248 118.518 5.152 118.71 5.152H131.43L151.494 34.336V8.272C151.494 7.312 151.286 6.656 150.87 6.304C150.454 5.952 149.734 5.776 148.71 5.776H147.846C147.654 5.776 147.558 5.68 147.558 5.488V5.344C147.558 5.216 147.654 5.152 147.846 5.152H156.774C156.902 5.152 156.966 5.216 156.966 5.344V5.488C156.966 5.68 156.902 5.776 156.774 5.776H155.862C154.934 5.776 154.23 5.952 153.75 6.304C153.302 6.656 153.078 7.312 153.078 8.272ZM179.874 7.024C178.946 7.024 178.178 7.232 177.57 7.648C176.994 8.064 176.514 8.576 176.13 9.184C175.778 9.792 175.474 10.464 175.218 11.2C174.994 11.936 174.754 12.608 174.498 13.216C174.274 13.824 174.018 14.336 173.73 14.752C173.442 15.168 173.042 15.376 172.53 15.376C172.018 15.376 171.618 15.2 171.33 14.848C171.074 14.464 170.85 14.048 170.658 13.6C170.466 13.12 170.274 12.704 170.082 12.352C169.89 11.968 169.602 11.776 169.218 11.776C169.154 11.776 169.106 11.792 169.074 11.824C169.074 11.824 169.042 11.824 168.978 11.824C168.082 11.984 167.506 12.464 167.25 13.264C166.994 14.032 166.882 14.848 166.914 15.712C166.946 16.736 167.138 17.856 167.49 19.072C167.106 18.72 166.77 18.288 166.482 17.776C166.226 17.328 165.986 16.784 165.762 16.144C165.57 15.504 165.474 14.736 165.474 13.84C165.474 12.304 165.826 11.056 166.53 10.096C167.266 9.104 168.082 8.608 168.978 8.608C169.65 8.608 170.114 8.848 170.37 9.328C170.658 9.808 170.866 10.336 170.994 10.912C171.154 11.456 171.298 11.968 171.426 12.448C171.554 12.928 171.81 13.168 172.194 13.168C172.642 13.168 172.994 12.96 173.25 12.544C173.538 12.128 173.794 11.616 174.018 11.008C174.242 10.4 174.482 9.728 174.738 8.992C174.994 8.256 175.346 7.584 175.794 6.976C176.242 6.368 176.818 5.856 177.522 5.44C178.226 5.024 179.138 4.816 180.258 4.816C181.314 4.816 182.146 5.04 182.754 5.488C183.394 5.936 183.874 6.464 184.194 7.072C184.546 7.648 184.77 8.224 184.866 8.8C184.962 9.344 185.01 9.728 185.01 9.952C185.01 11.488 184.53 12.8 183.57 13.888C182.61 14.944 181.394 15.904 179.922 16.768C178.482 17.6 176.914 18.416 175.218 19.216C173.554 19.984 171.986 20.88 170.514 21.904C169.074 22.928 167.874 24.128 166.914 25.504C165.954 26.88 165.474 28.592 165.474 30.64C165.474 32.144 165.762 33.44 166.338 34.528C166.946 35.584 167.666 36.448 168.498 37.12C169.362 37.792 170.274 38.288 171.234 38.608C172.194 38.928 173.042 39.088 173.778 39.088C175.538 39.088 177.154 38.688 178.626 37.888C180.098 37.088 181.442 36.048 182.658 34.768C183.874 33.488 184.946 32.064 185.874 30.496C186.802 28.928 187.57 27.392 188.178 25.888C188.818 24.352 189.298 22.928 189.618 21.616C189.938 20.304 190.098 19.28 190.098 18.544C190.098 16.912 190.034 15.28 189.906 13.648C189.778 12.016 189.81 10.544 190.002 9.232C190.194 7.92 190.642 6.864 191.346 6.064C192.082 5.232 193.282 4.816 194.946 4.816C195.618 4.816 196.21 4.944 196.722 5.2C197.266 5.424 197.698 5.728 198.018 6.112C198.37 6.496 198.626 6.928 198.786 7.408C198.978 7.856 199.074 8.32 199.074 8.8C199.074 9.888 198.818 10.944 198.306 11.968C197.794 12.992 197.218 14.016 196.578 15.04C195.97 16.032 195.41 17.04 194.898 18.064C194.386 19.088 194.13 20.144 194.13 21.232C194.13 22.096 194.274 22.816 194.562 23.392C194.882 23.968 195.234 24.496 195.618 24.976C196.002 25.424 196.338 25.888 196.626 26.368C196.946 26.816 197.106 27.36 197.106 28C197.106 28.512 196.898 28.976 196.482 29.392C196.066 29.776 195.538 30.16 194.898 30.544C194.29 30.896 193.618 31.264 192.882 31.648C192.146 32.032 191.442 32.448 190.77 32.896C190.13 33.344 189.586 33.84 189.138 34.384C188.722 34.928 188.482 35.568 188.418 36.304C188.386 36.688 188.45 37.024 188.61 37.312C188.77 37.568 188.978 37.792 189.234 37.984C189.522 38.144 189.826 38.272 190.146 38.368C190.466 38.464 190.786 38.512 191.106 38.512C192.29 38.512 193.346 38.144 194.274 37.408C195.202 36.672 195.986 35.84 196.626 34.912C197.394 33.888 198.066 32.704 198.642 31.36C198.13 33.024 197.49 34.512 196.722 35.824C196.402 36.368 196.034 36.912 195.618 37.456C195.202 38 194.722 38.48 194.178 38.896C193.666 39.312 193.09 39.648 192.45 39.904C191.842 40.16 191.17 40.288 190.434 40.288C189.858 40.288 189.314 40.192 188.802 40C188.29 39.84 187.842 39.6 187.458 39.28C187.074 38.96 186.786 38.56 186.594 38.08C186.402 37.568 186.338 37.008 186.402 36.4C186.466 35.632 186.722 34.96 187.17 34.384C187.618 33.776 188.162 33.232 188.802 32.752C189.474 32.272 190.162 31.824 190.866 31.408C191.602 30.992 192.274 30.592 192.882 30.208C193.522 29.824 194.05 29.424 194.466 29.008C194.882 28.592 195.09 28.144 195.09 27.664C195.09 27.088 194.914 26.592 194.562 26.176C194.242 25.728 193.89 25.28 193.506 24.832C193.122 24.384 192.754 23.872 192.402 23.296C192.082 22.72 191.922 22.016 191.922 21.184C191.922 20.288 192.194 19.36 192.738 18.4C193.314 17.408 193.922 16.432 194.562 15.472C195.234 14.48 195.842 13.536 196.386 12.64C196.962 11.712 197.25 10.88 197.25 10.144C197.25 9.184 196.978 8.48 196.434 8.032C195.922 7.584 195.346 7.36 194.706 7.36C193.49 7.36 192.626 7.744 192.114 8.512C191.602 9.248 191.282 10.224 191.154 11.44C191.026 12.624 190.994 13.936 191.058 15.376C191.154 16.816 191.17 18.24 191.106 19.648C191.074 20.288 190.898 21.248 190.578 22.528C190.29 23.776 189.842 25.168 189.234 26.704C188.658 28.24 187.906 29.808 186.978 31.408C186.05 33.008 184.946 34.464 183.666 35.776C182.418 37.088 180.978 38.176 179.346 39.04C177.746 39.872 175.954 40.288 173.97 40.288C171.986 40.288 170.29 40 168.882 39.424C167.506 38.816 166.386 38.064 165.522 37.168C164.658 36.24 164.034 35.248 163.65 34.192C163.234 33.136 163.026 32.128 163.026 31.168C163.026 29.696 163.266 28.368 163.746 27.184C164.226 26 164.834 24.944 165.57 24.016C166.306 23.088 167.106 22.288 167.97 21.616C168.866 20.944 169.73 20.384 170.562 19.936C171.394 19.456 172.13 19.072 172.77 18.784C173.442 18.496 173.906 18.304 174.162 18.208C174.546 18.048 175.234 17.76 176.226 17.344C177.25 16.896 178.274 16.336 179.298 15.664C180.354 14.992 181.282 14.224 182.082 13.36C182.882 12.496 183.282 11.552 183.282 10.528C183.282 9.44 182.962 8.592 182.322 7.984C181.682 7.344 180.866 7.024 179.874 7.024ZM239.962 10.144V8.464C239.962 8.176 239.93 7.872 239.866 7.552C239.834 7.232 239.754 6.944 239.626 6.688C239.498 6.432 239.306 6.224 239.05 6.064C238.826 5.872 238.538 5.776 238.186 5.776H237.37C236.826 5.776 236.442 5.984 236.218 6.4C236.026 6.784 235.994 7.232 236.122 7.744C236.378 8.8 236.698 10.128 237.082 11.728C237.466 13.296 237.882 15.008 238.33 16.864C238.778 18.688 239.242 20.592 239.722 22.576C240.202 24.528 240.666 26.432 241.114 28.288C241.594 30.112 242.026 31.824 242.41 33.424C242.794 34.992 243.13 36.32 243.418 37.408C243.834 38.944 244.842 39.712 246.442 39.712H248.362C248.49 39.712 248.554 39.744 248.554 39.808V39.904C248.554 39.968 248.49 40 248.362 40H235.018C234.89 40 234.826 39.968 234.826 39.904V39.808C234.826 39.744 234.89 39.712 235.018 39.712H237.082C237.754 39.712 238.282 39.632 238.666 39.472C239.05 39.312 239.322 39.104 239.482 38.848C239.674 38.592 239.77 38.304 239.77 37.984C239.77 37.664 239.738 37.36 239.674 37.072C239.45 36.112 239.162 34.96 238.81 33.616C238.49 32.24 238.138 30.768 237.754 29.2C237.37 27.632 236.954 26 236.506 24.304C236.09 22.608 235.69 20.944 235.306 19.312C234.378 15.472 233.386 11.44 232.33 7.216L223.834 30.064C224.186 30.384 224.65 30.64 225.226 30.832C225.802 31.024 226.554 31.12 227.482 31.12H230.266V31.36H227.434C225.706 31.424 224.474 31.824 223.738 32.56C223.002 33.264 222.634 34.48 222.634 36.208V38.272H222.394V36.16C222.33 34.464 221.93 33.248 221.194 32.512C220.49 31.744 219.274 31.36 217.546 31.36H214.762V31.12H217.594C218.33 31.12 218.938 31.056 219.418 30.928C219.93 30.8 220.362 30.624 220.714 30.4L211.066 8.464C209.946 13.072 208.778 17.824 207.562 22.72C206.378 27.584 205.226 32.32 204.106 36.928C203.722 38.784 204.49 39.712 206.41 39.712H207.85C207.946 39.712 207.994 39.744 207.994 39.808V39.904C207.994 39.968 207.946 40 207.85 40H198.25C198.154 40 198.106 39.968 198.106 39.904V39.808C198.106 39.744 198.154 39.712 198.25 39.712H199.69C200.65 39.712 201.354 39.488 201.802 39.04C202.282 38.592 202.65 37.872 202.906 36.88C204.026 32.208 205.178 27.488 206.362 22.72C207.546 17.952 208.698 13.232 209.818 8.56C210.01 7.76 210.01 7.104 209.818 6.592C209.626 6.08 209.162 5.808 208.426 5.776H207.61C206.906 5.776 206.426 6.08 206.17 6.688C205.914 7.264 205.786 7.84 205.786 8.416V10.096H205.642V8.416C205.642 7.392 205.418 6.656 204.97 6.208C204.522 5.728 203.786 5.488 202.762 5.488H201.034V5.344H202.762C203.786 5.344 204.522 5.12 204.97 4.672C205.418 4.224 205.642 3.488 205.642 2.464V0.783998H205.786V2.464C205.786 2.752 205.802 3.056 205.834 3.376C205.866 3.664 205.946 3.952 206.074 4.24C206.202 4.496 206.378 4.72 206.602 4.912C206.858 5.072 207.194 5.152 207.61 5.152H213.466C214.938 8.448 216.314 11.552 217.594 14.464C218.138 15.712 218.698 16.992 219.274 18.304C219.85 19.584 220.394 20.816 220.906 22C221.45 23.184 221.93 24.272 222.346 25.264C222.794 26.256 223.162 27.072 223.45 27.712L231.946 5.152H237.658C238.138 5.152 238.522 5.072 238.81 4.912C239.13 4.752 239.37 4.56 239.53 4.336C239.69 4.08 239.802 3.792 239.866 3.472C239.93 3.152 239.962 2.848 239.962 2.56V0.831998H240.106V2.56C240.106 3.584 240.33 4.32 240.778 4.768C241.226 5.216 241.962 5.44 242.986 5.44H244.426V5.584H242.986C241.962 5.584 241.226 5.824 240.778 6.304C240.33 6.752 240.106 7.488 240.106 8.512V10.144H239.962Z" fill="black"/>
</svg>
