<svg width="48" height="48" viewBox="0 0 48 48" fill="none" xmlns="http://www.w3.org/2000/svg">
<path fill-rule="evenodd" clip-rule="evenodd" d="M12.4375 28.625C16.2685 28.625 19.375 31.7307 19.375 35.5625C19.375 39.3935 16.2685 42.5 12.4375 42.5C8.60575 42.5 5.5 39.3935 5.5 35.5625C5.5 31.7315 8.6065 28.625 12.4375 28.625Z" stroke="black" stroke-width="3" stroke-linecap="round" stroke-linejoin="round"/>
<path fill-rule="evenodd" clip-rule="evenodd" d="M35.5625 28.625C39.3935 28.625 42.5 31.7307 42.5 35.5625C42.5 39.3935 39.3935 42.5 35.5625 42.5C31.7307 42.5 28.625 39.3935 28.625 35.5625C28.625 31.7315 31.7315 28.625 35.5625 28.625Z" stroke="black" stroke-width="3" stroke-linecap="round" stroke-linejoin="round"/>
<path fill-rule="evenodd" clip-rule="evenodd" d="M24 5.5C27.831 5.5 30.9375 8.60575 30.9375 12.4375C30.9375 16.2685 27.831 19.375 24 19.375C20.1682 19.375 17.0625 16.2685 17.0625 12.4375C17.0625 8.6065 20.169 5.5 24 5.5Z" stroke="black" stroke-width="3" stroke-linecap="round" stroke-linejoin="round"/>
</svg>
